<svg id="svg" version="1.1" xmlns="http://www.w3.org/2000/svg" xmlns:xlink="http://www.w3.org/1999/xlink" width="400" height="400" viewBox="0, 0, 400,400"><g id="svgg"><path id="path0" d="M198.389 75.583 C 198.053 75.904,197.596 76.206,197.375 76.255 C 196.826 76.375,194.216 78.025,193.963 78.412 C 193.851 78.583,193.673 78.673,193.569 78.612 C 193.290 78.447,190.000 80.424,190.000 80.756 C 190.000 80.912,189.847 80.945,189.661 80.830 C 189.309 80.612,187.673 81.505,186.487 82.561 C 186.113 82.894,185.619 83.206,185.390 83.255 C 184.952 83.347,182.288 84.954,182.000 85.300 C 181.908 85.410,181.640 85.540,181.403 85.588 C 180.957 85.679,178.295 87.279,178.000 87.633 C 177.908 87.743,177.652 87.869,177.430 87.912 C 176.992 87.998,172.607 90.620,172.333 90.960 C 172.242 91.074,171.989 91.201,171.772 91.243 C 171.315 91.331,166.249 94.292,166.000 94.616 C 165.908 94.736,165.640 94.873,165.403 94.921 C 164.957 95.012,162.295 96.613,162.000 96.966 C 161.908 97.077,161.640 97.206,161.403 97.255 C 160.957 97.346,158.295 98.946,158.000 99.300 C 157.908 99.410,157.652 99.536,157.430 99.579 C 156.992 99.665,152.607 102.287,152.333 102.626 C 152.242 102.740,151.973 102.873,151.736 102.921 C 151.290 103.012,148.628 104.613,148.333 104.966 C 148.242 105.077,147.973 105.206,147.736 105.255 C 147.290 105.346,144.628 106.946,144.333 107.300 C 144.242 107.410,143.973 107.540,143.736 107.588 C 143.174 107.703,140.559 109.342,140.296 109.745 C 140.184 109.917,139.959 110.044,139.796 110.028 C 139.626 110.012,139.462 124.900,139.411 145.083 L 139.322 180.167 140.029 180.748 C 140.418 181.068,140.870 181.247,141.035 181.145 C 141.199 181.044,141.333 181.088,141.333 181.244 C 141.333 181.576,144.623 183.553,144.902 183.388 C 145.007 183.327,145.184 183.417,145.296 183.588 C 145.554 183.984,148.167 185.628,148.723 185.745 C 148.953 185.794,149.399 186.058,149.715 186.333 C 150.470 186.992,152.637 188.145,152.792 187.970 C 153.247 187.454,168.284 154.857,168.160 154.655 C 168.073 154.515,161.627 146.626,153.834 137.123 L 139.667 119.845 139.667 118.071 L 139.667 116.296 143.083 120.458 C 144.962 122.747,151.600 130.849,157.833 138.463 C 164.067 146.077,169.245 152.313,169.341 152.320 C 169.437 152.327,175.567 139.421,182.963 123.638 L 196.411 94.943 192.455 89.134 C 190.280 85.938,188.301 83.037,188.059 82.686 C 187.669 82.123,187.720 81.981,188.492 81.474 C 189.553 80.780,189.098 80.296,193.734 87.050 L 197.542 92.599 199.572 88.216 C 200.688 85.806,202.281 82.382,203.112 80.607 L 204.623 77.381 203.835 76.865 C 203.402 76.581,202.862 76.308,202.635 76.258 C 202.408 76.208,201.947 75.904,201.611 75.583 C 201.275 75.262,200.550 75.000,200.000 75.000 C 199.450 75.000,198.725 75.262,198.389 75.583 M206.146 78.634 C 206.248 78.799,204.680 82.480,202.662 86.814 L 198.991 94.695 208.228 108.181 C 213.308 115.599,217.574 121.555,217.707 121.417 C 217.840 121.280,221.308 114.998,225.413 107.459 L 232.877 93.752 231.794 93.169 C 231.198 92.848,230.605 92.616,230.476 92.654 C 230.347 92.692,230.149 92.583,230.037 92.412 C 229.774 92.009,227.159 90.370,226.597 90.255 C 226.360 90.206,226.092 90.077,226.000 89.966 C 225.705 89.613,223.043 88.012,222.597 87.921 C 222.360 87.873,222.092 87.743,222.000 87.633 C 221.712 87.288,219.048 85.680,218.610 85.588 C 218.381 85.540,217.902 85.243,217.546 84.928 C 217.190 84.614,216.772 84.435,216.616 84.531 C 216.461 84.627,216.333 84.579,216.333 84.425 C 216.333 84.063,214.335 82.874,214.328 83.231 C 214.325 83.379,214.213 83.335,214.078 83.133 C 213.785 82.693,211.201 81.046,210.610 80.921 C 210.381 80.873,209.902 80.576,209.546 80.262 C 209.190 79.947,208.772 79.768,208.616 79.865 C 208.461 79.961,208.333 79.913,208.333 79.758 C 208.333 79.604,207.898 79.220,207.365 78.905 C 206.294 78.272,205.864 78.177,206.146 78.634 M197.104 94.071 C 196.810 94.716,196.850 95.026,197.304 95.628 L 197.872 96.380 198.254 95.541 C 198.568 94.852,198.532 94.574,198.054 93.984 L 197.472 93.265 197.104 94.071 M226.970 109.244 C 222.709 117.078,219.222 123.650,219.222 123.850 C 219.222 124.049,220.759 126.452,222.637 129.189 C 224.514 131.927,230.277 140.326,235.442 147.855 C 240.607 155.384,245.808 162.991,247.000 164.759 C 248.192 166.528,249.264 167.981,249.382 167.988 C 249.500 167.994,252.050 163.537,255.049 158.083 L 260.500 148.167 260.500 129.167 C 260.500 118.717,260.425 110.160,260.333 110.151 C 260.242 110.143,259.824 109.843,259.406 109.485 C 258.987 109.126,258.554 108.884,258.443 108.945 C 258.332 109.007,258.149 108.909,258.037 108.728 C 257.801 108.347,252.816 105.356,252.228 105.243 C 252.011 105.201,251.758 105.077,251.667 104.966 C 251.372 104.613,248.710 103.012,248.264 102.921 C 248.027 102.873,247.758 102.743,247.667 102.633 C 247.372 102.279,244.710 100.679,244.264 100.588 C 244.027 100.540,243.758 100.410,243.667 100.300 C 243.385 99.961,240.719 98.348,240.288 98.255 C 240.064 98.206,239.603 97.942,239.263 97.667 C 238.923 97.392,238.554 97.217,238.443 97.278 C 238.332 97.340,238.149 97.250,238.037 97.078 C 237.832 96.764,235.140 95.000,234.865 95.000 C 234.784 95.000,231.231 101.410,226.970 109.244 M184.500 125.521 C 177.167 141.196,171.129 154.131,171.082 154.264 C 171.036 154.398,172.964 156.905,175.368 159.837 C 177.772 162.768,181.614 167.454,183.906 170.250 C 186.199 173.046,188.171 175.328,188.287 175.322 C 188.404 175.317,189.490 173.479,190.699 171.239 C 191.909 168.999,198.182 157.462,204.640 145.601 L 216.381 124.035 213.122 119.268 C 211.330 116.645,208.779 112.925,207.454 111.000 C 206.128 109.075,203.435 105.138,201.469 102.250 C 199.503 99.362,197.880 97.004,197.864 97.010 C 197.847 97.015,191.833 109.845,184.500 125.521 M217.136 123.504 C 217.012 123.996,217.103 124.556,217.356 124.860 C 217.987 125.621,218.775 124.165,218.216 123.269 C 217.701 122.444,217.385 122.513,217.136 123.504 M203.986 151.429 C 196.385 165.379,190.120 176.980,190.063 177.209 C 190.006 177.437,194.791 183.521,200.695 190.729 C 214.296 207.330,214.389 207.439,214.631 207.109 C 214.742 206.957,215.027 206.794,215.264 206.745 C 215.861 206.623,218.446 204.981,218.745 204.534 C 218.880 204.332,218.992 204.288,218.995 204.436 C 219.002 204.793,221.000 203.603,221.000 203.242 C 221.000 203.087,221.127 203.039,221.283 203.135 C 221.438 203.232,221.857 203.053,222.213 202.738 C 222.568 202.424,223.047 202.127,223.277 202.079 C 223.715 201.986,226.379 200.379,226.667 200.034 C 226.758 199.923,227.027 199.794,227.264 199.745 C 227.826 199.630,230.441 197.991,230.704 197.588 C 230.816 197.417,230.993 197.327,231.098 197.388 C 231.202 197.450,232.026 197.069,232.928 196.542 C 234.538 195.602,234.681 195.376,240.848 184.042 C 244.301 177.694,247.394 172.045,247.721 171.489 L 248.314 170.477 246.407 167.753 C 245.358 166.255,242.700 162.392,240.500 159.170 C 238.300 155.948,235.675 152.122,234.667 150.669 C 233.658 149.216,231.858 146.592,230.667 144.839 C 229.475 143.086,226.700 139.032,224.500 135.831 C 222.300 132.630,219.894 129.123,219.153 128.037 L 217.805 126.064 203.986 151.429 M169.059 153.975 C 168.783 154.765,168.829 155.044,169.306 155.475 C 170.230 156.312,170.836 154.781,169.992 153.740 L 169.397 153.005 169.059 153.975 M255.804 161.214 C 253.437 165.548,251.365 169.372,251.200 169.712 C 250.969 170.188,251.248 170.846,252.421 172.582 C 257.293 179.795,258.667 181.727,258.667 181.365 C 258.667 181.143,258.792 181.038,258.946 181.133 C 259.099 181.228,259.549 181.078,259.946 180.801 C 260.701 180.271,261.134 153.333,260.387 153.333 C 260.233 153.333,258.171 156.879,255.804 161.214 M162.344 172.909 C 158.251 181.667,154.849 188.933,154.783 189.054 C 154.657 189.286,157.733 191.284,158.428 191.420 C 158.651 191.464,158.908 191.590,159.000 191.700 C 159.295 192.054,161.957 193.654,162.403 193.745 C 162.640 193.794,162.908 193.923,163.000 194.034 C 163.295 194.387,165.957 195.988,166.403 196.079 C 166.640 196.127,166.908 196.261,167.000 196.376 C 167.242 196.680,172.397 199.697,172.800 199.771 C 172.987 199.805,173.439 200.098,173.805 200.421 C 174.312 200.870,174.522 200.909,174.694 200.588 C 174.818 200.356,177.646 195.167,180.979 189.057 C 184.311 182.947,186.992 177.813,186.936 177.650 C 186.879 177.487,185.708 175.978,184.333 174.298 C 174.361 162.110,170.246 157.154,170.033 157.075 C 169.897 157.025,166.437 164.150,162.344 172.909 M249.000 169.667 C 248.626 170.366,249.053 171.667,249.656 171.667 C 250.165 171.667,250.389 170.394,250.007 169.679 C 249.555 168.835,249.446 168.834,249.000 169.667 M244.129 182.594 C 241.175 188.042,238.823 192.615,238.902 192.755 C 239.039 192.998,241.184 191.862,242.339 190.935 C 242.637 190.696,243.064 190.460,243.288 190.412 C 243.719 190.319,246.385 188.705,246.667 188.367 C 246.758 188.257,247.027 188.127,247.264 188.079 C 247.710 187.988,250.372 186.387,250.667 186.034 C 250.758 185.923,251.016 185.797,251.239 185.754 C 251.590 185.685,253.120 184.821,255.903 183.119 C 256.634 182.672,256.624 182.648,254.403 179.415 C 253.173 177.625,251.642 175.378,251.000 174.422 C 250.358 173.466,249.758 172.685,249.667 172.686 C 249.575 172.687,247.083 177.145,244.129 182.594 M187.994 176.841 C 187.645 177.261,187.650 177.512,188.019 178.203 C 188.441 178.992,188.502 179.009,188.903 178.461 C 189.737 177.320,188.874 175.781,187.994 176.841 M188.065 180.754 C 187.707 181.348,185.053 186.183,182.168 191.500 C 179.283 196.817,176.783 201.341,176.612 201.554 C 176.416 201.797,176.431 202.021,176.650 202.157 C 176.843 202.275,177.002 202.251,177.005 202.103 C 177.008 201.955,177.120 201.998,177.255 202.200 C 177.554 202.647,180.139 204.290,180.736 204.412 C 180.973 204.460,181.242 204.590,181.333 204.700 C 181.628 205.054,184.290 206.654,184.736 206.745 C 184.973 206.794,185.242 206.923,185.333 207.034 C 185.628 207.387,188.290 208.988,188.736 209.079 C 188.973 209.127,189.242 209.260,189.333 209.374 C 189.607 209.713,193.992 212.335,194.430 212.421 C 194.652 212.464,194.908 212.590,195.000 212.700 C 195.366 213.140,198.189 214.778,198.581 214.778 C 198.812 214.778,199.000 214.903,199.000 215.056 C 199.000 215.208,199.450 215.333,200.000 215.333 C 200.550 215.333,201.000 215.208,201.000 215.056 C 201.000 214.903,201.188 214.774,201.417 214.769 C 201.965 214.758,210.467 209.706,210.612 209.305 C 210.673 209.135,210.839 209.067,210.979 209.154 C 211.120 209.241,211.492 209.124,211.806 208.894 C 212.326 208.515,202.948 196.623,189.483 180.587 L 188.716 179.674 188.065 180.754 M173.803 247.126 C 173.706 247.378,173.673 248.316,173.730 249.209 L 173.833 250.833 176.250 250.931 L 178.667 251.029 178.667 248.848 L 178.667 246.667 176.323 246.667 C 174.640 246.667,173.929 246.796,173.803 247.126 M154.000 261.021 L 154.000 273.708 160.160 273.604 L 166.320 273.500 167.243 272.577 C 168.846 270.974,168.724 261.167,167.101 261.167 C 166.893 261.167,166.597 261.030,166.444 260.863 C 166.286 260.690,166.327 260.651,166.539 260.772 C 167.604 261.380,168.165 259.680,168.276 255.501 C 168.458 248.706,168.003 248.333,159.511 248.333 L 154.000 248.333 154.000 261.021 M163.500 255.500 L 163.500 258.833 161.250 258.932 L 159.000 259.030 159.000 255.500 L 159.000 251.970 161.250 252.068 L 163.500 252.167 163.500 255.500 M174.000 263.916 L 174.000 273.667 176.333 273.667 L 178.667 273.667 178.667 263.898 L 178.667 254.129 176.333 254.148 L 174.000 254.166 174.000 263.916 M184.333 263.916 L 184.333 273.667 186.667 273.667 L 189.000 273.667 189.000 266.883 C 189.000 260.675,189.291 257.961,189.946 258.049 C 190.067 258.066,190.879 258.061,191.750 258.039 L 193.333 258.000 193.333 256.000 L 193.333 254.000 192.155 254.000 C 190.899 254.000,189.217 254.875,189.523 255.370 C 189.623 255.533,189.547 255.667,189.353 255.667 C 189.159 255.667,189.000 255.321,189.000 254.898 C 189.000 254.166,188.887 254.130,186.667 254.148 L 184.333 254.166 184.333 263.916 M199.416 254.370 C 197.585 255.054,197.500 255.479,197.500 263.896 L 197.500 271.721 198.600 272.705 C 199.694 273.681,199.726 273.687,203.600 273.642 C 209.163 273.578,209.859 273.114,210.221 269.233 L 210.417 267.136 208.459 267.197 C 207.381 267.230,206.313 267.275,206.083 267.295 C 205.854 267.316,205.667 267.696,205.667 268.139 C 205.667 269.679,205.347 270.000,203.817 270.000 C 201.931 270.000,202.010 270.264,201.923 263.718 C 201.839 257.411,201.811 257.500,203.844 257.500 C 205.398 257.500,205.652 257.809,205.662 259.710 C 205.667 260.575,205.699 260.587,208.000 260.572 L 210.333 260.556 210.325 259.361 C 210.307 256.633,208.974 253.898,207.965 254.521 C 207.801 254.623,207.667 254.585,207.667 254.436 C 207.667 254.115,200.257 254.056,199.416 254.370 M216.235 255.041 L 215.167 256.017 215.167 263.823 L 215.167 271.629 215.994 272.398 C 216.448 272.821,216.936 273.129,217.077 273.083 C 217.218 273.037,217.333 273.150,217.333 273.333 C 217.333 273.910,221.988 273.751,222.213 273.167 C 222.318 272.892,222.539 272.667,222.702 272.667 C 222.866 272.667,223.000 272.892,223.000 273.167 C 223.000 273.567,223.500 273.667,225.500 273.667 L 228.000 273.667 228.000 263.911 L 228.000 254.156 225.500 254.156 C 223.705 254.156,223.000 254.275,223.000 254.578 C 223.000 255.123,222.431 255.127,222.250 254.583 C 221.929 253.620,217.414 253.964,216.235 255.041 M233.333 263.916 L 233.333 273.667 235.661 273.667 L 237.988 273.667 238.077 265.750 L 238.167 257.833 239.667 257.833 L 241.167 257.833 241.256 265.750 L 241.345 273.667 243.682 273.667 L 246.018 273.667 245.989 264.957 C 245.957 255.486,245.885 255.090,244.067 254.385 C 242.842 253.909,239.220 254.069,238.546 254.628 C 238.084 255.012,238.000 255.009,238.000 254.605 C 238.000 254.236,237.476 254.133,235.667 254.148 L 233.333 254.166 233.333 263.916 M222.925 264.068 L 222.833 269.833 221.539 269.939 C 219.668 270.093,219.632 269.976,219.632 263.833 C 219.632 257.747,219.627 257.764,221.333 257.607 C 222.981 257.456,223.026 257.639,222.925 264.068 M163.480 263.234 C 163.599 263.545,163.672 265.248,163.642 267.018 L 163.586 270.235 161.293 270.302 L 159.000 270.369 159.000 266.518 L 159.000 262.667 161.131 262.667 C 162.829 262.667,163.306 262.782,163.480 263.234 M102.397 295.590 C 102.103 295.688,102.000 298.131,102.000 305.028 L 102.000 314.333 103.667 314.333 C 104.741 314.333,105.333 314.191,105.333 313.933 C 105.333 313.622,105.422 313.622,105.733 313.933 C 106.417 314.617,109.565 314.435,110.333 313.667 C 111.218 312.782,111.357 302.658,110.502 301.437 C 109.823 300.467,107.660 300.121,106.353 300.773 L 105.358 301.270 105.263 298.396 L 105.167 295.522 103.980 295.490 C 103.327 295.472,102.615 295.517,102.397 295.590 M152.495 295.616 C 152.406 295.705,152.333 297.016,152.333 298.530 L 152.333 301.282 151.315 300.774 C 150.075 300.156,148.247 300.420,147.315 301.352 C 146.265 302.402,146.333 312.663,147.396 313.654 C 148.232 314.432,151.249 314.618,151.933 313.933 C 152.244 313.622,152.333 313.622,152.333 313.933 C 152.333 314.191,152.926 314.333,154.000 314.333 L 155.667 314.333 155.667 305.000 C 155.667 299.867,155.554 295.651,155.417 295.631 C 154.443 295.492,152.629 295.483,152.495 295.616 M280.730 295.590 C 280.436 295.688,280.333 298.131,280.333 305.028 L 280.333 314.333 282.005 314.333 L 283.677 314.333 283.589 304.928 L 283.500 295.523 282.313 295.491 C 281.660 295.473,280.948 295.517,280.730 295.590 M68.000 297.104 C 68.000 297.563,70.536 312.289,70.838 313.583 C 70.997 314.264,71.208 314.333,73.132 314.333 L 75.252 314.333 76.012 309.417 C 77.117 302.266,77.102 302.277,77.959 307.866 C 79.058 315.031,78.708 314.333,81.203 314.333 C 82.375 314.333,83.333 314.232,83.333 314.108 C 83.333 313.984,84.008 310.086,84.833 305.446 C 85.658 300.805,86.333 296.931,86.333 296.837 C 86.333 296.563,83.002 296.641,82.979 296.917 C 82.967 297.054,82.543 300.092,82.037 303.667 L 81.117 310.167 80.738 308.000 C 80.529 306.808,80.033 303.771,79.636 301.250 L 78.913 296.667 77.162 296.667 C 75.089 296.667,75.398 295.919,74.149 303.937 C 73.631 307.263,73.168 309.946,73.121 309.899 C 73.074 309.852,72.728 307.343,72.352 304.323 C 71.298 295.854,71.584 296.667,69.652 296.667 C 68.511 296.667,68.000 296.802,68.000 297.104 M166.620 297.304 C 165.835 297.940,165.833 297.958,165.833 305.500 C 165.833 314.743,165.615 314.333,170.552 314.333 C 175.079 314.333,175.333 314.041,175.333 308.848 L 175.333 305.000 173.000 305.000 L 170.667 305.000 170.667 306.167 C 170.667 307.120,170.791 307.333,171.349 307.333 C 171.978 307.333,172.023 307.507,171.932 309.583 L 171.833 311.833 170.576 311.937 L 169.319 312.041 169.409 305.604 L 169.500 299.167 170.667 299.167 C 171.824 299.167,171.834 299.180,171.936 300.767 L 172.038 302.368 173.602 302.267 L 175.167 302.167 175.267 300.251 C 175.423 297.253,174.652 296.667,170.552 296.667 C 167.952 296.667,167.271 296.777,166.620 297.304 M229.667 305.500 L 229.667 314.333 233.848 314.333 C 239.944 314.333,239.667 314.755,239.667 305.500 C 239.667 296.245,239.944 296.667,233.848 296.667 L 229.667 296.667 229.667 305.500 M236.167 305.500 L 236.167 311.833 234.583 311.935 L 233.000 312.037 233.000 305.500 L 233.000 298.963 234.583 299.065 L 236.167 299.167 236.167 305.500 M91.667 300.555 C 89.543 300.988,89.333 301.604,89.333 307.407 C 89.333 314.201,89.421 314.333,93.921 314.333 C 97.373 314.333,97.908 314.058,98.359 312.053 C 98.771 310.219,98.606 310.000,96.814 310.000 C 95.460 310.000,95.333 310.071,95.333 310.827 C 95.333 311.431,95.109 311.710,94.501 311.863 C 93.046 312.228,92.667 311.845,92.667 310.010 L 92.667 308.333 95.667 308.333 L 98.667 308.333 98.667 306.042 C 98.667 301.038,96.732 299.522,91.667 300.555 M122.834 300.685 C 121.119 301.202,121.000 301.647,121.000 307.551 C 121.000 312.701,121.037 313.008,121.730 313.654 C 122.565 314.432,125.582 314.618,126.267 313.933 C 126.578 313.622,126.667 313.622,126.667 313.933 C 126.667 314.191,127.261 314.333,128.340 314.333 L 130.014 314.333 129.923 307.417 L 129.833 300.500 128.414 300.397 C 127.359 300.321,126.942 300.431,126.791 300.823 C 126.660 301.164,126.456 301.243,126.211 301.047 C 125.586 300.545,123.898 300.364,122.834 300.685 M133.889 300.556 C 133.767 300.678,133.667 303.828,133.667 307.556 L 133.667 314.333 135.325 314.333 L 136.983 314.333 137.075 308.953 C 137.172 303.287,137.383 302.564,138.788 303.103 C 139.262 303.285,139.333 304.029,139.333 308.823 L 139.333 314.333 141.000 314.333 L 142.667 314.333 142.667 308.311 C 142.667 304.888,142.521 302.018,142.329 301.659 C 141.695 300.474,138.646 300.118,137.417 301.087 C 137.120 301.321,137.000 301.260,137.000 300.874 C 137.000 300.319,134.392 300.052,133.889 300.556 M180.834 300.685 C 179.119 301.202,179.000 301.647,179.000 307.551 C 179.000 312.701,179.037 313.008,179.730 313.654 C 180.565 314.432,183.582 314.618,184.267 313.933 C 184.578 313.622,184.667 313.622,184.667 313.933 C 184.667 314.191,185.261 314.333,186.340 314.333 L 188.014 314.333 187.923 307.417 L 187.833 300.500 186.414 300.397 C 185.359 300.321,184.942 300.431,184.791 300.823 C 184.660 301.164,184.456 301.243,184.211 301.047 C 183.586 300.545,181.898 300.364,180.834 300.685 M191.889 300.556 C 191.767 300.678,191.667 303.828,191.667 307.556 L 191.667 314.333 193.325 314.333 L 194.983 314.333 195.075 308.953 C 195.172 303.287,195.383 302.564,196.788 303.103 C 197.262 303.285,197.333 304.029,197.333 308.823 L 197.333 314.333 198.992 314.333 L 200.650 314.333 200.742 308.953 C 200.838 303.287,201.050 302.564,202.455 303.103 C 202.929 303.285,203.000 304.029,203.000 308.823 L 203.000 314.333 204.667 314.333 L 206.333 314.333 206.333 308.311 C 206.333 304.867,206.188 302.018,205.994 301.656 C 205.281 300.323,200.667 300.111,200.667 301.411 C 200.667 301.608,200.373 301.505,200.015 301.180 C 199.223 300.464,196.305 300.332,195.527 300.978 C 195.083 301.346,195.000 301.329,195.000 300.874 C 195.000 300.319,192.392 300.052,191.889 300.556 M212.667 300.555 C 210.543 300.988,210.333 301.604,210.333 307.407 C 210.333 314.201,210.421 314.333,214.921 314.333 C 218.373 314.333,218.908 314.058,219.359 312.053 C 219.771 310.219,219.606 310.000,217.814 310.000 C 216.460 310.000,216.333 310.071,216.333 310.827 C 216.333 311.431,216.109 311.710,215.501 311.863 C 214.046 312.228,213.667 311.845,213.667 310.010 L 213.667 308.333 216.667 308.333 L 219.667 308.333 219.667 306.042 C 219.667 301.038,217.732 299.522,212.667 300.555 M245.667 300.555 C 243.543 300.988,243.333 301.604,243.333 307.407 C 243.333 314.201,243.421 314.333,247.921 314.333 C 251.373 314.333,251.908 314.058,252.359 312.053 C 252.771 310.219,252.606 310.000,250.814 310.000 C 249.460 310.000,249.333 310.071,249.333 310.827 C 249.333 311.431,249.109 311.710,248.501 311.863 C 247.046 312.228,246.667 311.845,246.667 310.010 L 246.667 308.333 249.667 308.333 L 252.667 308.333 252.667 306.042 C 252.667 301.038,250.732 299.522,245.667 300.555 M255.217 300.585 C 255.132 300.723,255.674 303.873,256.423 307.585 L 257.785 314.333 260.059 314.333 C 261.310 314.333,262.333 314.195,262.333 314.025 C 262.333 313.855,262.928 310.832,263.655 307.307 C 265.128 300.163,265.137 300.333,263.305 300.333 C 261.688 300.333,261.645 300.426,260.819 305.750 C 260.484 307.904,260.116 309.667,260.000 309.667 C 259.884 309.667,259.516 307.904,259.181 305.750 C 258.355 300.426,258.312 300.333,256.695 300.333 C 255.968 300.333,255.303 300.447,255.217 300.585 M270.000 300.555 C 267.876 300.988,267.667 301.604,267.667 307.407 C 267.667 314.201,267.754 314.333,272.254 314.333 C 275.706 314.333,276.241 314.058,276.692 312.053 C 277.104 310.219,276.940 310.000,275.147 310.000 C 273.793 310.000,273.667 310.071,273.667 310.827 C 273.667 311.431,273.442 311.710,272.834 311.863 C 271.379 312.228,271.000 311.845,271.000 310.010 L 271.000 308.333 274.000 308.333 L 277.000 308.333 277.000 306.042 C 277.000 301.038,275.066 299.522,270.000 300.555 M289.731 300.642 C 287.830 301.128,287.689 301.594,287.677 307.432 C 287.664 314.204,287.750 314.333,292.281 314.333 C 296.832 314.333,296.807 314.368,296.939 307.741 C 297.072 301.059,296.895 300.720,293.167 300.499 C 291.883 300.422,290.337 300.487,289.731 300.642 M300.817 300.756 C 300.728 300.988,300.695 305.001,300.744 309.672 L 300.833 318.167 302.417 318.268 L 304.000 318.370 304.000 315.952 C 304.000 314.071,304.089 313.622,304.400 313.933 C 305.084 314.617,308.232 314.435,309.000 313.667 C 309.752 312.915,310.025 302.959,309.329 301.659 C 308.695 300.474,305.646 300.118,304.417 301.087 C 304.120 301.321,304.000 301.260,304.000 300.874 C 304.000 300.193,301.075 300.085,300.817 300.756 M315.667 300.555 C 313.543 300.988,313.333 301.604,313.333 307.407 C 313.333 314.201,313.421 314.333,317.921 314.333 C 321.373 314.333,321.908 314.058,322.359 312.053 C 322.771 310.219,322.606 310.000,320.814 310.000 C 319.460 310.000,319.333 310.071,319.333 310.827 C 319.333 311.431,319.109 311.710,318.501 311.863 C 317.046 312.228,316.667 311.845,316.667 310.010 L 316.667 308.333 319.667 308.333 L 322.667 308.333 322.667 306.042 C 322.667 301.038,320.732 299.522,315.667 300.555 M326.222 300.556 C 326.100 300.678,326.000 303.828,326.000 307.556 L 326.000 314.333 327.667 314.333 L 329.333 314.333 329.333 309.574 C 329.333 304.197,329.613 303.333,331.352 303.333 C 332.296 303.333,332.333 303.275,332.333 301.797 C 332.333 300.127,331.395 299.912,329.917 301.244 C 329.379 301.729,329.333 301.714,329.333 301.052 C 329.333 300.333,326.842 299.936,326.222 300.556 M95.268 304.750 L 95.370 306.333 94.018 306.333 L 92.667 306.333 92.667 304.647 L 92.667 302.960 93.917 303.063 C 95.155 303.166,95.168 303.182,95.268 304.750 M107.593 307.439 L 107.687 311.710 106.593 311.605 L 105.500 311.500 105.405 307.714 C 105.304 303.674,105.541 302.887,106.804 303.067 C 107.463 303.161,107.505 303.396,107.593 307.439 M126.304 303.464 C 126.559 303.772,126.657 305.209,126.595 307.714 L 126.500 311.500 125.417 311.604 L 124.333 311.709 124.333 307.577 C 124.333 305.304,124.433 303.344,124.556 303.222 C 124.934 302.843,125.899 302.977,126.304 303.464 M151.970 303.464 C 152.226 303.772,152.324 305.209,152.261 307.714 L 152.167 311.500 151.083 311.604 L 150.000 311.709 150.000 307.577 C 150.000 305.304,150.100 303.344,150.222 303.222 C 150.601 302.843,151.566 302.977,151.970 303.464 M184.304 303.464 C 184.559 303.772,184.657 305.209,184.595 307.714 L 184.500 311.500 183.417 311.604 L 182.333 311.709 182.333 307.577 C 182.333 305.304,182.433 303.344,182.556 303.222 C 182.934 302.843,183.899 302.977,184.304 303.464 M216.268 304.750 L 216.370 306.333 215.018 306.333 L 213.667 306.333 213.667 304.647 L 213.667 302.960 214.917 303.063 C 216.155 303.166,216.168 303.182,216.268 304.750 M249.268 304.750 L 249.370 306.333 248.018 306.333 L 246.667 306.333 246.667 304.647 L 246.667 302.960 247.917 303.063 C 249.155 303.166,249.168 303.182,249.268 304.750 M273.602 304.750 L 273.703 306.333 272.352 306.333 L 271.000 306.333 271.000 304.647 L 271.000 302.960 272.250 303.063 C 273.488 303.166,273.501 303.182,273.602 304.750 M293.500 307.500 L 293.500 311.833 292.333 311.833 L 291.167 311.833 291.074 307.396 L 290.980 302.959 292.240 303.063 L 293.500 303.167 293.500 307.500 M306.260 307.439 L 306.354 311.710 305.260 311.605 L 304.167 311.500 304.072 307.714 C 303.971 303.674,304.208 302.887,305.471 303.067 C 306.129 303.161,306.172 303.396,306.260 307.439 M319.268 304.750 L 319.370 306.333 318.018 306.333 L 316.667 306.333 316.667 304.647 L 316.667 302.960 317.917 303.063 C 319.155 303.166,319.168 303.182,319.268 304.750 " stroke="none" fill="#ea4c5c" fill-rule="evenodd"></path><path id="path1" d="M178.770 248.833 C 178.772 249.933,178.834 250.343,178.908 249.744 C 178.982 249.145,178.981 248.245,178.905 247.744 C 178.829 247.243,178.768 247.733,178.770 248.833 M246.144 265.833 C 246.144 270.233,246.191 271.987,246.249 269.731 C 246.307 267.475,246.307 263.875,246.249 261.731 C 246.191 259.587,246.144 261.433,246.144 265.833 M205.417 259.500 C 205.421 260.233,205.489 260.494,205.569 260.079 C 205.649 259.665,205.646 259.065,205.562 258.746 C 205.479 258.427,205.414 258.767,205.417 259.500 M205.417 268.167 C 205.421 268.900,205.489 269.161,205.569 268.746 C 205.649 268.331,205.646 267.731,205.562 267.413 C 205.479 267.094,205.414 267.433,205.417 268.167 M159.917 270.241 C 160.512 270.315,161.487 270.315,162.083 270.241 C 162.679 270.167,162.192 270.107,161.000 270.107 C 159.808 270.107,159.321 270.167,159.917 270.241 M105.331 298.432 L 105.495 301.500 105.595 298.698 C 105.650 297.156,105.576 295.776,105.431 295.629 C 105.286 295.483,105.241 296.744,105.331 298.432 M283.666 304.933 L 283.833 314.500 283.922 305.189 C 283.971 300.068,283.896 295.762,283.755 295.622 C 283.615 295.481,283.575 299.671,283.666 304.933 M233.140 305.500 C 233.140 309.167,233.188 310.712,233.248 308.934 C 233.308 307.157,233.308 304.157,233.249 302.268 C 233.189 300.379,233.140 301.833,233.140 305.500 M111.132 307.500 C 111.132 310.067,111.184 311.073,111.248 309.735 C 111.311 308.398,111.311 306.298,111.247 305.069 C 111.183 303.839,111.131 304.933,111.132 307.500 M142.804 308.667 C 142.804 311.875,142.854 313.188,142.915 311.583 C 142.976 309.979,142.976 307.354,142.915 305.750 C 142.854 304.146,142.804 305.458,142.804 308.667 M206.470 308.667 C 206.470 311.875,206.520 313.188,206.582 311.583 C 206.643 309.979,206.643 307.354,206.582 305.750 C 206.520 304.146,206.470 305.458,206.470 308.667 M309.798 307.500 C 309.799 310.067,309.851 311.073,309.914 309.735 C 309.978 308.398,309.977 306.298,309.914 305.069 C 309.850 303.839,309.798 304.933,309.798 307.500 M105.461 307.500 C 105.461 309.700,105.515 310.557,105.580 309.404 C 105.646 308.251,105.645 306.451,105.579 305.404 C 105.513 304.357,105.460 305.300,105.461 307.500 M137.136 309.000 C 137.136 312.025,137.186 313.262,137.248 311.750 C 137.310 310.237,137.310 307.762,137.248 306.250 C 137.186 304.737,137.136 305.975,137.136 309.000 M195.136 309.000 C 195.136 312.025,195.186 313.262,195.248 311.750 C 195.310 310.237,195.310 307.762,195.248 306.250 C 195.186 304.737,195.136 305.975,195.136 309.000 M200.802 309.000 C 200.802 312.025,200.853 313.262,200.915 311.750 C 200.976 310.237,200.976 307.762,200.915 306.250 C 200.853 304.737,200.802 305.975,200.802 309.000 M304.127 307.500 C 304.128 309.700,304.182 310.557,304.247 309.404 C 304.312 308.251,304.312 306.451,304.246 305.404 C 304.180 304.357,304.127 305.300,304.127 307.500 M329.467 309.500 C 329.467 312.250,329.519 313.331,329.581 311.901 C 329.644 310.472,329.644 308.222,329.581 306.901 C 329.517 305.581,329.466 306.750,329.467 309.500 M170.417 306.167 C 170.421 306.900,170.489 307.161,170.569 306.746 C 170.649 306.331,170.646 305.731,170.562 305.413 C 170.479 305.094,170.414 305.433,170.417 306.167 M94.093 308.579 C 94.970 308.648,96.320 308.647,97.093 308.577 C 97.867 308.507,97.150 308.451,95.500 308.452 C 93.850 308.453,93.217 308.510,94.093 308.579 M215.093 308.579 C 215.970 308.648,217.320 308.647,218.093 308.577 C 218.867 308.507,218.150 308.451,216.500 308.452 C 214.850 308.453,214.217 308.510,215.093 308.579 M248.093 308.579 C 248.970 308.648,250.320 308.647,251.093 308.577 C 251.867 308.507,251.150 308.451,249.500 308.452 C 247.850 308.453,247.217 308.510,248.093 308.579 M272.427 308.579 C 273.303 308.648,274.653 308.647,275.427 308.577 C 276.200 308.507,275.483 308.451,273.833 308.452 C 272.183 308.453,271.550 308.510,272.427 308.579 M318.093 308.579 C 318.970 308.648,320.320 308.647,321.093 308.577 C 321.867 308.507,321.150 308.451,319.500 308.452 C 317.850 308.453,317.217 308.510,318.093 308.579 M291.750 311.896 C 292.071 311.980,292.596 311.980,292.917 311.896 C 293.237 311.813,292.975 311.744,292.333 311.744 C 291.692 311.744,291.429 311.813,291.750 311.896 M304.109 315.833 C 304.111 317.117,304.171 317.601,304.243 316.909 C 304.315 316.218,304.314 315.168,304.241 314.576 C 304.167 313.984,304.108 314.550,304.109 315.833 " stroke="none" fill="#8c444c" fill-rule="evenodd"></path><path id="path2" d="" stroke="none" fill="#bc4454" fill-rule="evenodd"></path><path id="path3" d="M203.256 254.242 C 203.855 254.316,204.755 254.314,205.256 254.238 C 205.757 254.162,205.267 254.101,204.167 254.103 C 203.067 254.105,202.657 254.167,203.256 254.242 M201.744 259.333 C 201.744 259.975,201.813 260.237,201.896 259.917 C 201.980 259.596,201.980 259.071,201.896 258.750 C 201.813 258.429,201.744 258.692,201.744 259.333 " stroke="none" fill="#e04060" fill-rule="evenodd"></path></g></svg>